name analog
datacolumns 19
datarows 70
range 0.3005 0.335
endheader
time	ground_force_vx	ground_force_vy	ground_force_vz	ground_force_px	ground_force_py	ground_force_pz	l_ground_force_vx	l_ground_force_vy	l_ground_force_vz	l_ground_force_px	l_ground_force_py	l_ground_force_pz	ground_torque_x	ground_torque_y	ground_torque_z	l_ground_torque_x	l_ground_torque_y	l_ground_torque_z
0.3005	-0.0	-0.0	-0.0	-0.0	-0.0	-0.0	-2.905604839324951	-2.2263882160186768	-932.7155151367188	-0.0	-0.0	-0.0	-0.0	-0.0	-0.0	254993.640625	-4650.037109375	-274.6251220703125
0.301	-0.0	-0.0	-0.0	-0.0	-0.0	-0.0	-5.285643100738525	-2.6128089427948	-924.7869262695312	-0.0	-0.0	-0.0	-0.0	-0.0	-0.0	253425.109375	-3930.65185546875	-1095.805419921875
0.3015	-0.0	-0.0	-0.0	-0.0	-0.0	-0.0	-7.713746547698975	-3.654073476791382	-920.85888671875	-0.0	-0.0	-0.0	-0.0	-0.0	-0.0	252531.203125	-3229.766357421875	-2058.071044921875
0.302	-0.0	-0.0	-0.0	-0.0	-0.0	-0.0	-9.436248779296877	-4.448845386505127	-921.8504028320312	-0.0	-0.0	-0.0	-0.0	-0.0	-0.0	252938.0625	-3220.642578125	-2865.15478515625
0.3025	-0.0	-0.0	-0.0	-0.0	-0.0	-0.0	-9.725505828857422	-4.946014404296875	-925.5274658203124	-0.0	-0.0	-0.0	-0.0	-0.0	-0.0	253857.328125	-3352.146240234375	-3133.824951171875
0.303	-0.0	-0.0	-0.0	-0.0	-0.0	-0.0	-8.478798866271973	-5.396539211273193	-930.139892578125	-0.0	-0.0	-0.0	-0.0	-0.0	-0.0	255483.90625	-3906.51025390625	-2948.767822265625
0.3035	-0.0	-0.0	-0.0	-0.0	-0.0	-0.0	-6.457093715667725	-5.893609046936035	-935.2499389648438	-0.0	-0.0	-0.0	-0.0	-0.0	-0.0	257185.703125	-4482.4130859375	-2686.663818359375
0.304	-0.0	-0.0	-0.0	-0.0	-0.0	-0.0	-4.543102264404297	-6.782000541687012	-937.3236694335938	-0.0	-0.0	-0.0	-0.0	-0.0	-0.0	257956.484375	-5370.06298828125	-2414.044921875
0.3045	-0.0	-0.0	-0.0	-0.0	-0.0	-0.0	-3.2387540340423584	-8.024194717407227	-938.9430541992188	-0.0	-0.0	-0.0	-0.0	-0.0	-0.0	258814.328125	-5724.42724609375	-2106.095703125
0.305	-0.0	-0.0	-0.0	-0.0	-0.0	-0.0	-1.7931843996047974	-8.724961280822754	-939.1190795898438	-0.0	-0.0	-0.0	-0.0	-0.0	-0.0	259003.8125	-6234.6865234375	-2050.31005859375
0.3055	-0.0	-0.0	-0.0	-0.0	-0.0	-0.0	-1.0835564136505127	-9.41892910003662	-940.614501953125	-0.0	-0.0	-0.0	-0.0	-0.0	-0.0	259382.84375	-6577.2421875	-2013.955078125
0.306	-0.0	-0.0	-0.0	-0.0	-0.0	-0.0	-0.4941276311874389	-9.008811950683594	-940.2652587890624	-0.0	-0.0	-0.0	-0.0	-0.0	-0.0	259888.0625	-6806.67529296875	-1937.1785888671875
0.3065	-0.0	-0.0	-0.0	-0.0	-0.0	-0.0	-0.2974125742912292	-8.536060333251953	-939.642333984375	-0.0	-0.0	-0.0	-0.0	-0.0	-0.0	259781.25	-6899.89501953125	-2104.468017578125
0.307	-0.0	-0.0	-0.0	-0.0	-0.0	-0.0	-0.8798917531967163	-7.994338512420654	-939.1423950195312	-0.0	-0.0	-0.0	-0.0	-0.0	-0.0	260132.71875	-7015.619140625	-2362.94873046875
0.3075	-0.0	-0.0	-0.0	-0.0	-0.0	-0.0	-1.292141079902649	-6.689211845397949	-938.51953125	-0.0	-0.0	-0.0	-0.0	-0.0	-0.0	260146.03125	-7241.22119140625	-2619.493896484375
0.308	-0.0	-0.0	-0.0	-0.0	-0.0	-0.0	-1.9015637636184688	-3.9018499851226807	-936.849853515625	-0.0	-0.0	-0.0	-0.0	-0.0	-0.0	260005.28125	-7358.7373046875	-2678.56689453125
0.3085	-0.0	-0.0	-0.0	-0.0	-0.0	-0.0	-1.7548552751541138	-2.304419755935669	-931.2635498046876	-0.0	-0.0	-0.0	-0.0	-0.0	-0.0	259114.875	-7210.28076171875	-2612.26904296875
0.309	-0.0	-0.0	-0.0	-0.0	-0.0	-0.0	-1.3805017471313477	-2.119720458984375	-922.0662231445312	-0.0	-0.0	-0.0	-0.0	-0.0	-0.0	255795.375	-7140.79052734375	-2440.470458984375
0.3095	-0.0	-0.0	-0.0	-0.0	-0.0	-0.0	-1.7936930656433103	-2.85644006729126	-910.85986328125	-0.0	-0.0	-0.0	-0.0	-0.0	-0.0	252696.640625	-6815.86474609375	-2293.356201171875
0.31	-0.0	-0.0	-0.0	-0.0	-0.0	-0.0	-2.47493314743042	-3.5134172439575195	-900.5389404296875	-0.0	-0.0	-0.0	-0.0	-0.0	-0.0	249666.734375	-6532.8212890625	-2032.8726806640625
0.3105	-0.0	-0.0	-0.0	-0.0	-0.0	-0.0	-2.4839019775390625	-4.465356349945068	-889.4435424804688	-0.0	-0.0	-0.0	-0.0	-0.0	-0.0	246455.65625	-6626.95654296875	-1825.5225830078125
0.311	-0.0	-0.0	-0.0	-0.0	-0.0	-0.0	-2.2177696228027344	-5.014769554138184	-880.8698120117188	-0.0	-0.0	-0.0	-0.0	-0.0	-0.0	243890.765625	-6498.12890625	-1433.296630859375
0.3115	-0.0	-0.0	-0.0	-0.0	-0.0	-0.0	-2.286752462387085	-4.82829475402832	-877.1073608398438	-0.0	-0.0	-0.0	-0.0	-0.0	-0.0	242418.1875	-6716.23876953125	-1176.263916015625
0.312	-0.0	-0.0	-0.0	-0.0	-0.0	-0.0	-2.90766978263855	-4.5832037925720215	-876.7197265625	-0.0	-0.0	-0.0	-0.0	-0.0	-0.0	242433.71875	-7041.37939453125	-1252.320556640625
0.3125	-0.0	-0.0	-0.0	-0.0	-0.0	-0.0	-2.099832057952881	-3.1702232360839844	-882.4992065429688	-0.0	-0.0	-0.0	-0.0	-0.0	-0.0	244104.890625	-7377.0087890625	-994.4725341796876
0.313	-0.0	-0.0	-0.0	-0.0	-0.0	-0.0	-1.2311468124389648	-1.1770565509796145	-892.545654296875	-0.0	-0.0	-0.0	-0.0	-0.0	-0.0	246671.734375	-7674.48486328125	-621.0768432617188
0.3135	-0.0	-0.0	-0.0	-0.0	-0.0	-0.0	-0.9159842133522034	0.971538543701172	-901.5880126953124	-0.0	-0.0	-0.0	-0.0	-0.0	-0.0	249427.625	-7939.60107421875	-485.3814086914063
0.314	-0.0	-0.0	-0.0	-0.0	-0.0	-0.0	-0.6009723544120789	2.188126802444458	-909.6529541015624	-0.0	-0.0	-0.0	-0.0	-0.0	-0.0	252123.796875	-8289.6201171875	-323.2674865722656
0.3145	-0.0	-0.0	-0.0	-0.0	-0.0	-0.0	0.1858198046684265	3.199570655822754	-914.6981811523438	-0.0	-0.0	-0.0	-0.0	-0.0	-0.0	253781.421875	-8348.20703125	-140.6614227294922
0.315	-0.0	-0.0	-0.0	-0.0	-0.0	-0.0	1.782448649406433	2.946481227874756	-919.982177734375	-0.0	-0.0	-0.0	-0.0	-0.0	-0.0	254978.640625	-8877.56640625	511.810791015625
0.3155	-0.0	-0.0	-0.0	-0.0	-0.0	-0.0	3.1171388626098637	2.8463997840881348	-924.553466796875	-0.0	-0.0	-0.0	-0.0	-0.0	-0.0	256124.453125	-8868.66796875	1034.428466796875
0.316	-0.0	-0.0	-0.0	-0.0	-0.0	-0.0	2.7905404567718506	1.6579477787017822	-928.853271484375	-0.0	-0.0	-0.0	-0.0	-0.0	-0.0	257315.375	-8877.4794921875	1004.210693359375
0.3165	-0.0	-0.0	-0.0	-0.0	-0.0	-0.0	1.3306617736816406	1.0598602294921875	-934.4096069335938	-0.0	-0.0	-0.0	-0.0	-0.0	-0.0	258606.5625	-8454.83984375	635.2150268554688
0.317	-0.0	-0.0	-0.0	-0.0	-0.0	-0.0	0.1498206108808517	1.0801408290863037	-936.6936645507812	-0.0	-0.0	-0.0	-0.0	-0.0	-0.0	259581.96875	-8072.423828125	292.1853332519531
0.3175	-0.0	-0.0	-0.0	-0.0	-0.0	-0.0	-1.3856134414672852	2.2963638305664062	-937.98193359375	-0.0	-0.0	-0.0	-0.0	-0.0	-0.0	260221.21875	-7606.6796875	-121.4205322265625
0.318	-0.0	-0.0	-0.0	-0.0	-0.0	-0.0	-3.350539445877075	3.138819456100464	-937.3646240234376	-0.0	-0.0	-0.0	-0.0	-0.0	-0.0	260301.03125	-7039.71337890625	-884.6617431640625
0.3185	-0.0	-0.0	-0.0	-0.0	-0.0	-0.0	-4.980862617492676	3.3088128566741943	-934.7597045898438	-0.0	-0.0	-0.0	-0.0	-0.0	-0.0	260127.28125	-6960.48681640625	-1488.087158203125
0.319	-0.0	-0.0	-0.0	-0.0	-0.0	-0.0	-5.458894729614258	3.0234341621398926	-933.0140991210938	-0.0	-0.0	-0.0	-0.0	-0.0	-0.0	259501.765625	-6477.3134765625	-1675.9412841796875
0.3195	-0.0	-0.0	-0.0	-0.0	-0.0	-0.0	-5.38463306427002	1.8813629150390625	-932.23486328125	-0.0	-0.0	-0.0	-0.0	-0.0	-0.0	258945.625	-6531.62646484375	-1612.1190185546875
0.32	-0.0	-0.0	-0.0	-0.0	-0.0	-0.0	-5.009244441986084	1.1069231033325195	-934.9694213867188	-0.0	-0.0	-0.0	-0.0	-0.0	-0.0	259806.828125	-6479.21484375	-1605.1395263671875
0.3205	-0.0	-0.0	-0.0	-0.0	-0.0	-0.0	-4.879093170166016	0.6652312278747559	-938.051513671875	-0.0	-0.0	-0.0	-0.0	-0.0	-0.0	261025.875	-6841.3916015625	-1582.437744140625
0.321	-0.0	-0.0	-0.0	-0.0	-0.0	-0.0	-5.260135650634766	1.0130300521850586	-942.5242309570312	-0.0	-0.0	-0.0	-0.0	-0.0	-0.0	262015.234375	-6597.59619140625	-1793.8800048828125
0.3215	-0.0	-0.0	-0.0	-0.0	-0.0	-0.0	-4.68077564239502	1.994895815849304	-947.966796875	-0.0	-0.0	-0.0	-0.0	-0.0	-0.0	263614.96875	-6985.00830078125	-1639.6170654296875
0.322	-0.0	-0.0	-0.0	-0.0	-0.0	-0.0	-4.101633548736572	2.852079153060913	-954.3961791992188	-0.0	-0.0	-0.0	-0.0	-0.0	-0.0	265463.46875	-7502.3330078125	-1649.3763427734375
0.3225	-0.0	-0.0	-0.0	-0.0	-0.0	-0.0	-2.2177696228027344	4.197600841522217	-959.4869384765624	-0.0	-0.0	-0.0	-0.0	-0.0	-0.0	267361.125	-8039.87109375	-1312.755126953125
0.323	-0.0	-0.0	-0.0	-0.0	-0.0	-0.0	0.7352337837219238	4.836730480194092	-962.7767333984376	-0.0	-0.0	-0.0	-0.0	-0.0	-0.0	268714.3125	-8474.138671875	-671.9786376953125
0.3235	-0.0	-0.0	-0.0	-0.0	-0.0	-0.0	3.5779471397399902	5.164731025695801	-965.6702270507812	-0.0	-0.0	-0.0	-0.0	-0.0	-0.0	269320.53125	-8748.0859375	78.7176513671875
0.324	-0.0	-0.0	-0.0	-0.0	-0.0	-0.0	4.967803955078125	4.327762603759766	-967.3167724609376	-0.0	-0.0	-0.0	-0.0	-0.0	-0.0	269600.5625	-9180.470703125	479.2569885253906
0.3245	-0.0	-0.0	-0.0	-0.0	-0.0	-0.0	4.794173717498779	2.84743070602417	-970.0416870117188	-0.0	-0.0	-0.0	-0.0	-0.0	-0.0	269916.84375	-8979.5341796875	344.63543701171875
0.325	-0.0	-0.0	-0.0	-0.0	-0.0	-0.0	3.548431396484375	1.6569006443023682	-971.172119140625	-0.0	-0.0	-0.0	-0.0	-0.0	-0.0	270725.4375	-9197.4384765625	151.2646942138672
0.3255	-0.0	-0.0	-0.0	-0.0	-0.0	-0.0	2.572612762451172	0.8619637489318848	-972.5421752929688	-0.0	-0.0	-0.0	-0.0	-0.0	-0.0	270654.15625	-9339.4794921875	-280.3155517578125
0.326	-0.0	-0.0	-0.0	-0.0	-0.0	-0.0	2.373785972595215	0.971538543701172	-974.5542602539062	-0.0	-0.0	-0.0	-0.0	-0.0	-0.0	271177.65625	-9466.3447265625	-546.3331909179688
0.3265	-0.0	-0.0	-0.0	-0.0	-0.0	-0.0	1.5538336038589478	1.394538402557373	-973.7838134765624	-0.0	-0.0	-0.0	-0.0	-0.0	-0.0	270953.625	-9584.1884765625	-613.369873046875
0.327	-0.0	-0.0	-0.0	-0.0	-0.0	-0.0	0.9973403811454772	1.1027148962020874	-972.9801635742188	-0.0	-0.0	-0.0	-0.0	-0.0	-0.0	270589.1875	-9193.900390625	-800.8170166015625
0.3275	-0.0	-0.0	-0.0	-0.0	-0.0	-0.0	0.6857656836509705	0.4154790341854095	-971.5098266601562	-0.0	-0.0	-0.0	-0.0	-0.0	-0.0	269571.9375	-9169.0654296875	-673.6807861328125
0.328	-0.0	-0.0	-0.0	-0.0	-0.0	-0.0	-0.1320208311080932	-0.2886066138744354	-968.2056884765624	-0.0	-0.0	-0.0	-0.0	-0.0	-0.0	268338.09375	-8908.6162109375	-652.7760620117188
0.3285	-0.0	-0.0	-0.0	-0.0	-0.0	-0.0	-1.2891920804977417	-1.6800273656845093	-968.55419921875	-0.0	-0.0	-0.0	-0.0	-0.0	-0.0	267822.53125	-8931.1201171875	-765.9967651367188
0.329	-0.0	-0.0	-0.0	-0.0	-0.0	-0.0	-1.2419509887695312	-2.318040132522583	-969.3369750976562	-0.0	-0.0	-0.0	-0.0	-0.0	-0.0	268353.90625	-8765.6455078125	-743.6160888671875
0.3295	-0.0	-0.0	-0.0	-0.0	-0.0	-0.0	-0.9976322650909424	-1.809869647026062	-974.4878540039062	-0.0	-0.0	-0.0	-0.0	-0.0	-0.0	269089.0	-8605.955078125	-564.7859497070312
0.33	-0.0	-0.0	-0.0	-0.0	-0.0	-0.0	-1.463117241859436	-1.1699583530426023	-979.8964233398438	-0.0	-0.0	-0.0	-0.0	-0.0	-0.0	270243.59375	-8774.5888671875	-624.6910400390625
0.3305	-0.0	-0.0	-0.0	-0.0	-0.0	-0.0	-1.9507157802581787	-0.8167462348937988	-983.293701171875	-0.0	-0.0	-0.0	-0.0	-0.0	-0.0	270870.375	-8671.50390625	-684.1758422851562
0.331	-0.0	-0.0	-0.0	-0.0	-0.0	-0.0	-3.08288836479187	-0.94964599609375	-981.724853515625	-0.0	-0.0	-0.0	-0.0	-0.0	-0.0	270761.40625	-8516.1826171875	-892.35498046875
0.3315	-0.0	-0.0	-0.0	-0.0	-0.0	-0.0	-4.081151008605957	-1.5229830741882324	-978.3246459960938	-0.0	-0.0	-0.0	-0.0	-0.0	-0.0	269486.25	-8164.69287109375	-1063.8167724609375
0.332	-0.0	-0.0	-0.0	-0.0	-0.0	-0.0	-4.834848403930664	-2.782464027404785	-975.0933837890624	-0.0	-0.0	-0.0	-0.0	-0.0	-0.0	268695.40625	-8033.0791015625	-1220.370849609375
0.3325	-0.0	-0.0	-0.0	-0.0	-0.0	-0.0	-5.123061656951904	-3.9743666648864746	-972.0379028320312	-0.0	-0.0	-0.0	-0.0	-0.0	-0.0	267372.71875	-7991.447265625	-1287.6181640625
0.333	-0.0	-0.0	-0.0	-0.0	-0.0	-0.0	-4.369312286376953	-4.857448577880859	-971.3406982421876	-0.0	-0.0	-0.0	-0.0	-0.0	-0.0	267074.375	-7979.22314453125	-983.2545776367188
0.3335	-0.0	-0.0	-0.0	-0.0	-0.0	-0.0	-3.3928279876708984	-5.14438009262085	-969.593994140625	-0.0	-0.0	-0.0	-0.0	-0.0	-0.0	266461.84375	-8041.5791015625	-626.6644897460938
0.334	-0.0	-0.0	-0.0	-0.0	-0.0	-0.0	-2.5279347896575928	-5.210979461669922	-967.4991455078124	-0.0	-0.0	-0.0	-0.0	-0.0	-0.0	265656.5625	-8067.44873046875	-440.3963928222656
0.3345	-0.0	-0.0	-0.0	-0.0	-0.0	-0.0	-2.816331148147583	-5.51963472366333	-966.4479370117188	-0.0	-0.0	-0.0	-0.0	-0.0	-0.0	265077.84375	-8170.70947265625	-374.0474548339844
0.335	-0.0	-0.0	-0.0	-0.0	-0.0	-0.0	-3.3698978424072266	-5.587730407714844	-964.095947265625	-0.0	-0.0	-0.0	-0.0	-0.0	-0.0	264518.40625	-7577.47705078125	-560.2955932617188
